<?xml version="1.0" encoding="utf-8"?>
<!-- Generator: Adobe Illustrator 24.1.3, SVG Export Plug-In . SVG Version: 6.00 Build 0)  -->
<svg version="1.1" id="Layer_1" xmlns="http://www.w3.org/2000/svg" xmlns:xlink="http://www.w3.org/1999/xlink" x="0px" y="0px"
	 viewBox="0 0 1920 1080" style="enable-background:new 0 0 1920 1080;" xml:space="preserve">
<style type="text/css">
	.st0{fill:#B87F0D;}
</style>
<g>
	<g>
		<path class="st0" d="M113.77,647.29c-9.67,0-18.88-1.33-27.61-3.98c-8.74-2.65-16.23-8.35-22.46-17.08
			c3.12-14.98,6.94-31.12,11.47-48.44c4.52-17.32,9.43-35.1,14.74-53.35c5.3-18.25,10.68-36.19,16.15-53.82
			c5.46-17.62,10.68-34.08,15.68-49.37c4.99-15.28,9.51-28.7,13.57-40.25c4.05-11.54,7.17-20.28,9.36-26.21
			c0.94-2.49,2.49-6.16,4.68-11c2.18-4.83,4.83-9.75,7.96-14.74c3.12-4.99,6.71-9.28,10.76-12.87c4.05-3.58,8.42-5.38,13.1-5.38
			c4.37,0,8.73,1.56,13.1,4.68c-9.67,22.46-19.42,47.27-29.25,74.41c-9.83,27.14-19.27,55.15-28.31,84.01
			c-9.05,28.86-17.32,57.02-24.8,84.47c-7.49,27.46-13.73,52.42-18.72,74.88c4.37,0.62,8.03,1.09,11,1.4c2.96,0.31,6,0.47,9.13,0.47
			c19.96,0,39.23-4.61,57.8-13.81c18.56-9.21,35.88-21.84,51.95-37.91c16.07-16.07,30.19-34.47,42.35-55.22
			c12.17-20.75,21.6-42.74,28.31-65.99c6.71-23.24,10.06-46.41,10.06-69.5c0-25.27-4.06-46.1-12.17-62.48
			c-8.12-16.38-19.35-28.47-33.7-36.27c-14.35-7.79-31.05-11.7-50.08-11.7c-20.29,0-38.54,4.06-54.76,12.17
			c-16.23,8.12-29.02,19.03-38.38,32.76c-9.36,13.73-14.04,29.18-14.04,46.33c0,3.74,0.23,7.02,0.7,9.83
			c0.47,2.81,1.01,5.31,1.64,7.49c-10.3,0-17.55-2.57-21.76-7.72c-4.21-5.15-6.32-11.3-6.32-18.49c0-10.92,3.82-21.92,11.47-32.99
			c7.64-11.07,18.25-21.29,31.82-30.65s29.25-16.92,47.03-22.7c17.78-5.77,36.66-8.66,56.63-8.66c28.08,0,50.62,5.7,67.63,17.08
			c17,11.39,29.4,26.76,37.21,46.1c7.79,19.35,11.7,41.03,11.7,65.05c0,27.14-4.21,53.12-12.64,77.92
			c-8.42,24.8-20.05,47.58-34.87,68.33c-14.82,20.75-31.75,38.84-50.78,54.29c-19.03,15.44-39.39,27.45-61.07,36.04
			C157.37,643,135.61,647.29,113.77,647.29z"/>
		<path class="st0" d="M376.79,618.74c-12.17,0-21.22-3.82-27.14-11.47c-5.93-7.64-8.89-16.92-8.89-27.85
			c0-7.17,1.33-16.22,3.98-27.14c2.65-10.92,6.16-22.38,10.53-34.4c4.37-12.01,9.43-23.32,15.21-33.93
			c5.77-10.6,11.93-19.26,18.49-25.97c6.55-6.71,12.94-10.06,19.19-10.06c2.81,0,5.22,0.86,7.25,2.57c2.03,1.72,3.04,4.29,3.04,7.72
			c0,3.74-2.42,9.83-7.25,18.25c-4.84,8.42-10.53,18.1-17.08,29.02c-6.55,10.92-12.25,22.39-17.08,34.4
			c-4.84,12.01-7.25,23.48-7.25,34.4c0,11.23,1.87,18.72,5.62,22.46s9.51,5.62,17.32,5.62c10.6,0,21.92-5.3,33.93-15.91
			c12.01-10.6,24.72-29.17,38.14-55.69l4.21,4.68c-9.05,26.84-22.08,47.43-39.08,61.78C412.9,611.56,395.19,618.74,376.79,618.74z
			 M432.95,404.4c-4.99,0-9.44-1.24-13.34-3.74c-3.9-2.49-5.85-6.39-5.85-11.7c0-6.55,3.82-12.24,11.47-17.08
			c7.64-4.83,15.21-7.25,22.7-7.25c4.68,0,8.42,1.1,11.23,3.28c2.81,2.19,4.21,5.93,4.21,11.23c0,5.93-3.2,11.63-9.59,17.08
			C447.38,401.67,440.44,404.4,432.95,404.4z"/>
		<path class="st0" d="M426.4,737.61c-2.49,0-4.91-1.33-7.25-3.98c-2.34-2.65-4.13-5.46-5.38-8.42c-1.24-2.97-1.87-4.76-1.87-5.38
			c4.37-15.29,8.66-28.94,12.87-40.95c4.21-12.02,8.42-24.34,12.64-36.97c4.21-12.64,8.35-27.46,12.4-44.46
			c4.06-17,8.26-38.14,12.64-63.41c4.37-25.27,8.73-56.63,13.1-94.07c0.31-2.81,0.94-4.83,1.87-6.08c0.94-1.24,3.28-1.87,7.02-1.87
			c8.11,0,13.88,2.27,17.32,6.79c3.43,4.53,5.15,9.44,5.15,14.74c0,4.37-0.94,12.17-2.81,23.4c-1.87,11.23-4.53,24.5-7.96,39.78
			c5.3-10.3,11.93-20.75,19.89-31.36c7.96-10.6,17.08-19.5,27.38-26.68c10.3-7.17,21.53-10.76,33.7-10.76
			c13.73,0,25.04,4.91,33.93,14.74c8.89,9.83,13.34,22.7,13.34,38.61c0,12.17-2.73,25.04-8.19,38.61
			c-5.46,13.57-13.1,26.37-22.93,38.38c-9.83,12.01-21.45,21.76-34.87,29.25c-13.42,7.49-28.24,11.23-44.46,11.23
			c-8.12,0-14.67-0.94-19.66-2.81c-4.99-1.87-7.49-3.74-7.49-5.62c0-1.25,1.17-1.95,3.51-2.11c2.34-0.16,5.07-0.23,8.19-0.23
			c12.48,0,24.41-3.04,35.8-9.13c11.39-6.08,21.6-14.11,30.65-24.1c9.05-9.98,16.15-21.06,21.29-33.23
			c5.15-12.17,7.72-24.18,7.72-36.04c0-9.98-2.11-18.49-6.32-25.51c-4.21-7.02-11-10.53-20.36-10.53c-8.12,0-16.15,2.57-24.1,7.72
			c-7.96,5.15-15.44,11.7-22.46,19.66s-13.26,16.23-18.72,24.8c-5.46,8.58-9.59,16.31-12.4,23.17
			c-5.62,23.4-11.23,45.94-16.85,67.63c-5.62,21.68-11,41.34-16.15,58.97c-5.15,17.62-9.83,32.06-14.04,43.29
			c-4.21,11.23-7.72,18.09-10.53,20.59C430.45,736.83,428.58,737.61,426.4,737.61z"/>
		<path class="st0" d="M677.71,620.61c-13.42,0-23.01-4.61-28.78-13.81c-5.78-9.2-8.66-20.67-8.66-34.4
			c0-14.98,2.81-32.76,8.42-53.35c5.62-20.59,13.02-42.27,22.23-65.05c9.2-22.77,19.26-45,30.19-66.69
			c10.92-21.68,21.83-41.42,32.76-59.2c10.92-17.78,20.98-31.98,30.19-42.59c9.2-10.6,16.45-15.91,21.76-15.91
			c3.43,0,6.24,1.95,8.42,5.85c2.18,3.9,3.9,8.58,5.15,14.04c1.24,5.46,1.87,10.38,1.87,14.74c0,8.42-2.11,19.42-6.32,32.99
			c-4.21,13.57-10.14,28.71-17.78,45.4c-7.65,16.69-16.69,33.54-27.14,50.54c-10.46,17.01-21.84,33.31-34.16,48.91
			c-12.33,15.6-25.35,29.02-39.08,40.25c-1.87,8.42-3.36,16.61-4.45,24.57c-1.1,7.96-1.64,15.52-1.64,22.7
			c0,12.17,1.71,21.22,5.15,27.14c3.43,5.93,8.58,8.89,15.44,8.89c8.42,0,16.77-3.74,25.04-11.23c8.26-7.49,16.07-16.92,23.4-28.31
			c7.33-11.38,13.65-23.17,18.95-35.33l7.02,3.74c-12.48,26.52-26.05,47.5-40.72,62.95C710.31,612.89,694.55,620.61,677.71,620.61z
			 M680.98,506.42c10.92-10.92,21.53-23.47,31.82-37.67c10.3-14.19,19.89-28.94,28.78-44.23c8.89-15.28,16.77-30.11,23.63-44.46
			c6.86-14.35,12.17-27.22,15.91-38.61c3.74-11.39,5.62-20.2,5.62-26.44c0-3.12-0.4-5.15-1.17-6.08c-0.78-0.94-1.48-1.4-2.11-1.4
			c-2.5,0-6.79,3.98-12.87,11.93s-13.18,18.65-21.29,32.06c-8.12,13.42-16.38,28.71-24.8,45.86c-8.42,17.16-16.46,35.1-24.1,53.82
			C692.76,469.92,686.28,488.33,680.98,506.42z"/>
		<path class="st0" d="M781.6,621.55c-13.42,0-22.93-4.14-28.55-12.4c-5.62-8.26-8.42-18.33-8.42-30.19
			c0-9.67,1.56-19.66,4.68-29.95c3.12-10.3,7.25-19.96,12.4-29.02c5.15-9.05,10.92-16.38,17.32-22c6.39-5.62,12.87-8.42,19.42-8.42
			c1.56,0,3.2,0.23,4.91,0.7c1.71,0.47,3.35,1.02,4.91,1.64c-2.81,2.5-6.16,7.1-10.06,13.81c-3.9,6.71-7.57,14.35-11,22.93
			c-3.44,8.58-6.32,17.08-8.66,25.51s-3.51,15.61-3.51,21.53c0,9.36,1.56,16.15,4.68,20.36c3.12,4.21,7.17,6.32,12.17,6.32
			c6.55,0,14.35-3.51,23.4-10.53c9.04-7.02,17.94-15.98,26.68-26.91c-8.74-7.17-15.52-16.61-20.36-28.31
			c-4.84-11.7-7.25-23.63-7.25-35.8c0-10.3,1.79-19.96,5.38-29.02c3.58-9.05,8.81-16.3,15.68-21.76c6.86-5.46,15.13-8.19,24.8-8.19
			c12.79,0,21.37,3.44,25.74,10.3c4.37,6.87,6.55,15.44,6.55,25.74c0,12.17-2.97,25.67-8.89,40.48
			c-5.93,14.82-13.42,29.1-22.46,42.82c5.62,3.12,11.54,4.68,17.79,4.68c4.99,0,10.6-1.01,16.85-3.04
			c6.24-2.03,12.4-5.54,18.49-10.53c6.08-4.99,11-11.7,14.74-20.12l5.62,4.68c-6.24,14.67-15.06,25.04-26.44,31.12
			c-11.39,6.08-22.23,9.13-32.53,9.13c-4.06,0-7.96-0.39-11.7-1.17c-3.74-0.78-7.33-1.95-10.76-3.51
			c-10.61,14.04-22.23,25.74-34.87,35.1C805.7,616.87,793.45,621.55,781.6,621.55z M850.39,552.75
			c7.79-11.54,14.28-23.63,19.42-36.27c5.15-12.64,7.72-24.57,7.72-35.8c0-9.05-1.33-15.68-3.98-19.89
			c-2.65-4.21-6.01-6.32-10.06-6.32c-6.25,0-12.64,4.53-19.19,13.57c-6.55,9.05-9.83,20.44-9.83,34.16c0,9.05,1.32,18.18,3.98,27.38
			C841.11,538.79,845.09,546.52,850.39,552.75z"/>
		<path class="st0" d="M1156,621.08c-10.92,0-18.88-3.36-23.87-10.06c-4.99-6.71-7.49-14.74-7.49-24.1c0-7.79,1.17-15.6,3.51-23.4
			c2.34-7.79,4.68-15.44,7.02-22.93c2.34-7.49,3.51-14.19,3.51-20.12c0-6.24-1.4-10.6-4.21-13.1c-2.81-2.49-5.93-3.74-9.36-3.74
			c-7.8,0-16.31,6.08-25.51,18.25c-9.21,12.17-21.14,29.33-35.8,51.48c-4.99,7.49-9.21,15.06-12.64,22.7
			c-3.44,7.65-6.71,14.58-9.83,20.83c-2.5,0-5.62-0.31-9.36-0.94c-3.74-0.63-7.1-1.64-10.06-3.04c-2.97-1.4-4.45-3.2-4.45-5.38
			c0-2.18,1.48-7.41,4.45-15.68c2.96-8.26,6.39-17.94,10.3-29.02c3.9-11.07,7.33-22.3,10.3-33.7c2.96-11.39,4.45-21.13,4.45-29.25
			c0-5.3-0.86-9.59-2.57-12.87c-1.72-3.28-4.76-4.91-9.13-4.91c-6.87,0-15.14,4.14-24.8,12.4c-9.67,8.27-19.66,19.11-29.95,32.53
			c-10.3,13.42-20.05,28.16-29.25,44.23c-9.21,16.07-16.61,32.06-22.23,47.97c-2.81,0-6.24-0.47-10.3-1.4
			c-4.05-0.94-7.56-2.19-10.53-3.74c-2.96-1.56-4.45-3.12-4.45-4.68c0-1.87,1.64-7.41,4.91-16.62c3.28-9.2,7.02-20.28,11.23-33.23
			c4.21-12.94,7.96-26.13,11.23-39.55c3.28-13.41,4.91-25.27,4.91-35.57c1.87-2.18,4.83-4.37,8.89-6.55
			c4.05-2.18,8.26-3.28,12.64-3.28c4.37,0,7.56,1.1,9.59,3.28c2.03,2.19,3.04,5.15,3.04,8.89c0,4.06-1.17,11-3.51,20.83
			c-2.34,9.83-5.23,20.67-8.66,32.53c6.24-9.98,13.34-20.2,21.29-30.65c7.96-10.45,16.3-20.04,25.04-28.78
			c8.73-8.73,17.55-15.83,26.44-21.29c8.89-5.46,17.55-8.19,25.97-8.19c9.67,0,16.3,3.51,19.89,10.53
			c3.58,7.02,5.38,15.37,5.38,25.04c0,7.8-0.86,15.99-2.57,24.57c-1.72,8.58-3.67,16.54-5.85,23.87
			c-2.19,7.33-4.21,13.18-6.08,17.55c6.55-11.85,13.81-23.32,21.76-34.4c7.96-11.07,16.61-20.12,25.97-27.14
			c9.36-7.02,19.34-10.53,29.95-10.53c9.98,0,16.92,2.97,20.83,8.89c3.9,5.93,5.85,12.95,5.85,21.06c0,8.12-1.4,17.01-4.21,26.68
			c-2.81,9.67-5.7,19.03-8.66,28.08c-2.97,9.05-4.45,16.85-4.45,23.4c0,4.06,1.01,7.72,3.04,11c2.03,3.28,5.69,4.91,11,4.91
			c8.73,0,16.92-3.98,24.57-11.93c7.64-7.96,14.74-17.62,21.29-29.02c6.55-11.38,12.17-22.38,16.85-32.99l5.62,6.55
			c-4.99,13.1-11.39,26.14-19.19,39.08c-7.8,12.95-16.93,23.63-27.38,32.06C1179.94,616.87,1168.47,621.08,1156,621.08z"/>
		<path class="st0" d="M1272.99,627.17c-19.03,0-33.31-5.23-42.82-15.68s-14.27-23.32-14.27-38.61c0-14.04,3.51-28.86,10.53-44.46
			c7.02-15.6,16.38-30.26,28.08-43.99c11.7-13.73,24.57-24.88,38.61-33.46c14.04-8.58,27.92-12.87,41.65-12.87
			c7.17,0,13.81,1.87,19.89,5.62c6.08,3.74,9.13,11.39,9.13,22.93c0,11.86-3.51,23.01-10.53,33.46
			c-7.02,10.46-16.23,19.74-27.61,27.85c-11.39,8.12-23.87,14.74-37.44,19.89c-13.57,5.15-27.07,8.35-40.48,9.59
			c-0.63,3.12-1.1,6.08-1.4,8.89c-0.31,2.81-0.47,5.46-0.47,7.96c0,4.68,0.54,9.36,1.64,14.04c1.09,4.68,3.04,8.97,5.85,12.87
			c2.81,3.91,6.63,6.94,11.47,9.13c4.83,2.18,10.84,3.28,18.02,3.28c13.41,0,26.68-3.82,39.78-11.46
			c13.1-7.64,25.27-17.7,36.5-30.19c11.23-12.48,20.75-26.21,28.55-41.18l5.62,4.21c-8.42,18.72-19.12,34.95-32.06,48.67
			c-12.95,13.73-26.99,24.41-42.12,32.06C1303.95,623.34,1288.59,627.17,1272.99,627.17z M1250.06,548.54
			c8.42-2.81,17.94-6.94,28.55-12.4c10.6-5.46,20.83-11.93,30.65-19.42c9.83-7.49,17.94-15.75,24.34-24.8
			c6.39-9.05,9.59-18.56,9.59-28.55c0-3.43-0.63-6.08-1.87-7.96c-1.25-1.87-3.91-2.81-7.96-2.81c-7.49,0-15.44,2.89-23.87,8.66
			c-8.42,5.78-16.54,13.34-24.34,22.7c-7.8,9.36-14.82,19.66-21.06,30.89C1257.86,526.08,1253.18,537.31,1250.06,548.54z"/>
		<path class="st0" d="M1410.58,621.55c-13.42,0-22.93-4.14-28.55-12.4c-5.62-8.26-8.42-18.33-8.42-30.19
			c0-9.67,1.56-19.66,4.68-29.95c3.12-10.3,7.25-19.96,12.4-29.02c5.15-9.05,10.92-16.38,17.32-22c6.39-5.62,12.87-8.42,19.42-8.42
			c1.56,0,3.2,0.23,4.91,0.7c1.71,0.47,3.35,1.02,4.91,1.64c-2.81,2.5-6.16,7.1-10.06,13.81c-3.91,6.71-7.57,14.35-11,22.93
			c-3.44,8.58-6.32,17.08-8.66,25.51s-3.51,15.61-3.51,21.53c0,9.36,1.56,16.15,4.68,20.36c3.12,4.21,7.17,6.32,12.17,6.32
			c6.55,0,14.35-3.51,23.4-10.53c9.04-7.02,17.94-15.98,26.68-26.91c-8.74-7.17-15.52-16.61-20.36-28.31
			c-4.84-11.7-7.25-23.63-7.25-35.8c0-10.3,1.79-19.96,5.38-29.02c3.58-9.05,8.81-16.3,15.68-21.76c6.86-5.46,15.13-8.19,24.8-8.19
			c12.79,0,21.37,3.44,25.74,10.3c4.37,6.87,6.55,15.44,6.55,25.74c0,12.17-2.97,25.67-8.89,40.48
			c-5.93,14.82-13.42,29.1-22.46,42.82c5.62,3.12,11.54,4.68,17.78,4.68c4.99,0,10.6-1.01,16.85-3.04
			c6.24-2.03,12.4-5.54,18.49-10.53c6.08-4.99,11-11.7,14.74-20.12l5.62,4.68c-6.25,14.67-15.06,25.04-26.44,31.12
			c-11.39,6.08-22.23,9.13-32.53,9.13c-4.06,0-7.96-0.39-11.7-1.17c-3.74-0.78-7.33-1.95-10.76-3.51
			c-10.61,14.04-22.23,25.74-34.87,35.1C1434.68,616.87,1422.44,621.55,1410.58,621.55z M1479.38,552.75
			c7.79-11.54,14.27-23.63,19.42-36.27c5.15-12.64,7.72-24.57,7.72-35.8c0-9.05-1.33-15.68-3.98-19.89
			c-2.65-4.21-6.01-6.32-10.06-6.32c-6.25,0-12.64,4.53-19.19,13.57c-6.55,9.05-9.83,20.44-9.83,34.16c0,9.05,1.32,18.18,3.98,27.38
			C1470.09,538.79,1474.07,546.52,1479.38,552.75z"/>
		<path class="st0" d="M1599.18,632.78c-14.98,0-27.46-5-37.44-14.98c-9.99-9.99-14.98-24.96-14.98-44.93
			c0-15.6,3.04-30.81,9.13-45.63c6.08-14.81,14.11-28.15,24.1-40.01c9.98-11.85,21.06-21.29,33.23-28.31s24.17-10.53,36.04-10.53
			c12.79,0,21.53,3.74,26.21,11.23c4.68,7.49,7.02,15.29,7.02,23.4c0,9.05-2.11,17.01-6.32,23.87c-4.21,6.87-9.91,10.3-17.08,10.3
			c-5.31,0-9.83-2.34-13.57-7.02c4.68-2.49,8.73-7.56,12.17-15.21c3.43-7.64,5.15-14.9,5.15-21.76c0-3.74-0.7-6.63-2.11-8.66
			c-1.4-2.03-4.14-3.04-8.19-3.04c-8.42,0-17.08,3.74-25.97,11.23c-8.89,7.49-17.16,17.16-24.8,29.02
			c-7.65,11.86-13.89,24.34-18.72,37.44c-4.84,13.1-7.25,25.43-7.25,36.97c0,9.67,2.34,18.57,7.02,26.68
			c4.68,8.11,13.73,12.17,27.14,12.17c12.48,0,25.04-3.44,37.67-10.3c12.64-6.86,24.41-16.69,35.33-29.48
			c10.92-12.79,19.66-27.77,26.21-44.93l6.08,4.68c-7.18,18.72-17.01,35.49-29.48,50.31c-12.48,14.82-26.21,26.44-41.18,34.87
			C1629.6,628.57,1614.46,632.78,1599.18,632.78z"/>
		<path class="st0" d="M1720.39,737.61c-7.8,0-14.67-2.11-20.59-6.32c-5.92-4.21-8.89-10.38-8.89-18.49c0-9.99,2.5-18.88,7.49-26.68
			c4.99-7.8,11.7-14.98,20.12-21.53s18.09-12.8,29.02-18.72c10.92-5.93,22.3-11.86,34.16-17.79c4.37-11.55,8.81-24.41,13.34-38.61
			c4.52-14.19,8.81-29.87,12.87-47.03c-9.99,16.23-20.67,30.19-32.06,41.89c-11.39,11.7-23.48,17.55-36.27,17.55
			c-5.93,0-11.78-1.32-17.55-3.98c-5.78-2.65-10.53-6.79-14.27-12.4c-3.74-5.62-5.62-12.79-5.62-21.53c0-8.73,1.48-18.87,4.45-30.42
			c2.96-11.54,6.63-22.77,11-33.7c4.37-10.92,8.89-19.96,13.57-27.14c4.68-7.17,8.73-10.76,12.17-10.76c1.24,0,3.51,0.47,6.79,1.4
			c3.28,0.94,6.39,2.27,9.36,3.98c2.96,1.72,4.45,3.51,4.45,5.38c-2.81,4.06-5.93,9.83-9.36,17.32
			c-3.44,7.49-6.79,15.84-10.06,25.04c-3.28,9.21-6.01,18.18-8.19,26.91c-2.19,8.74-3.28,16.23-3.28,22.46
			c0,5.62,1.24,10.14,3.74,13.57c2.49,3.44,6.86,5.15,13.1,5.15c5.92,0,12.55-2.88,19.89-8.66c7.33-5.77,14.66-13.18,22-22.23
			c7.33-9.05,14.11-18.72,20.36-29.02c0.94-3.43,1.79-6.94,2.57-10.53c0.78-3.58,1.48-7.25,2.11-11c0.94-4.37,3.2-9.43,6.79-15.21
			c3.58-5.77,9.28-8.66,17.08-8.66c1.56,0,3.11,0.08,4.68,0.23c1.56,0.16,3.28,0.55,5.15,1.17c0,4.99-1.48,14.27-4.45,27.85
			c-2.97,13.57-7.18,29.41-12.64,47.5c-5.46,18.1-11.93,36.67-19.42,55.69c14.66-5.62,29.02-14.9,43.06-27.85
			c14.04-12.94,25.42-30.19,34.16-51.71l6.08,4.68c-4.68,14.98-11.78,28.01-21.29,39.08c-9.52,11.08-20.21,20.59-32.06,28.55
			c-11.86,7.96-23.56,14.58-35.1,19.89c-8.12,19.96-16.93,38.68-26.44,56.16c-9.52,17.47-19.5,31.59-29.95,42.35
			C1741.99,732.23,1731.31,737.61,1720.39,737.61z M1718.05,722.64c4.68,0,12.56-6.17,23.63-18.49
			c11.07-12.33,22.85-33.93,35.33-64.82c-12.8,6.86-24.65,13.65-35.57,20.36c-10.92,6.71-19.66,13.96-26.21,21.76
			c-6.55,7.8-9.83,16.85-9.83,27.14c0,2.49,0.94,5.46,2.81,8.89C1710.1,720.92,1713.37,722.64,1718.05,722.64z"/>
	</g>
</g>
</svg>
